<svg t="1727187579617" class="icon" viewBox="0 0 1249 1024" version="1.1" xmlns="http://www.w3.org/2000/svg" p-id="4567"
     width="200" height="200">
    <path d="M659.937882 956.16S668.912941 729.705412 560.112941 534.256941C430.832941 302.064941 897.159529 278.264471 812.348235 59.316706c-45.876706-118.302118 187.806118 48.165647 174.381177 188.009412-14.170353 147.877647-310.452706 233.660235-312.952471 348.047058-2.507294 114.386824 41.487059 357.466353-13.846588 360.786824"
          fill="#ffecb4" p-id="4568"></path>
    <path d="M692.367059 938.112c3.215059 1.392941 6.535529 2.462118 9.795765 3.689412 9.660235 3.260235 19.629176 6.053647 29.831529 8.350117a170.390588 170.390588 0 0 0 41.991529-6.249411c53.443765-14.170353 142.305882-60.634353 167.115294-211.704471 16.715294-102.896941 6.392471-108.348235 99.418353-165.029647 3.877647-2.191059 7.574588-4.592941 11.738353-7.077647 105.426824-63.495529 15.247059-180.472471 111.533177-279.017412 96.301176-98.552471-79.104-156.912941-111.344941-35.523765-32.240941 121.396706-274.582588 125.854118-253.515294 277.022118 21.067294 151.160471-47.337412 123.053176-140.649412 224.828235-81.573647 88.801882-48.150588 158.418824 34.085647 190.712471"
          fill="#f4ea2a" p-id="4569"></path>
    <path d="M686.885647 937.690353c-46.433882-32.361412 83.809882-164.329412 79.088941-289.709177-4.713412-125.387294 129.829647-15.616 202.925177-12.626823 73.103059 2.989176 112.414118-121.261176 176.399059-108.837647 64 12.431059 82.115765 76.830118 14.870588 124.656941-67.252706 47.811765 73.185882 2.989176 88.387764 38.016 15.194353 35.026824-202.262588 105.441882-155.452235 134.384941 46.817882 28.943059 175.224471 32.376471 14.155294 99.260236-161.054118 66.898824-320.519529 84.510118-420.374588 14.855529"
          fill="#ffca2c" p-id="4570"></path>
    <path d="M847.879529 730.782118l13.304471 3.689411c-27.226353 48.911059-13.590588 113.769412-8.116706 134.66353 49.212235-21.157647 95.307294-45.598118 117.059765-69.744941 22.512941-24.975059 38.505412-52.434824 55.401412-81.528471 8.018824-13.748706 16.180706-27.632941 25.095529-41.381647-5.797647-9.961412-22.174118-41.148235-9.005176-52.608l11.12847 6.347294c-4.713412 3.952941-0.655059 18.763294 6.422588 33.438118 19.440941-27.934118 43.218824-54.791529 77.711059-77.944471l9.908706 7.30353c-54.362353 36.540235-81.626353 83.328-108.009412 128.662588l-3.719529 6.377412c8.207059 5.014588 32.790588 16.602353 71.198118 2.093176l6.746352 8.899765c-41.005176 15.375059-70.211765 5.511529-83.614117-1.392941-12.973176 23.273412-28.762353 45.733647-47.179294 67.117176-12.122353 12.619294-26.744471 23.958588-43.414589 33.671529 14.584471 11.956706 66.063059 49.618824 128.39153 43.173648l2.123294 9.968941c-59.120941 6.211765-107.670588-21.586824-131.169882-38.490353-4.389647-3.328-7.830588-5.918118-10.383059-8.041412-89.652706 50.748235-234.977882 92.988235-242.672941 95.081412l-5.376-9.366588a1730.258824 1730.258824 0 0 0 160.429176-56.094118c-5.044706-16.865882-23.115294-88.538353 7.740235-143.894588M854.016 74.767059c31.608471 52.615529 40.342588 113.897412 17.566118 166.324706-10.842353 25.652706-28.837647 49.505882-52.931765 70.151529-22.866824 20.427294-51.983059 36.065882-78.704941 54.753882-26.721882 18.695529-52.931765 38.558118-71.476706 63.608471s-28.175059 53.888-31.36753 82.793412c-6.204235 58.119529 4.690824 116.201412 17.468236 173.281882-8.267294-57.449412-15.028706-115.629176-7.280941-171.979294 4.321882-28.009412 14.087529-55.152941 32.075294-78.539294 17.987765-23.386353 42.970353-42.714353 69.744941-60.483765 26.767059-17.761882 55.883294-34.032941 79.834353-55.883294 24.922353-21.955765 43.331765-47.239529 54.144-74.345412 21.458824-56.056471 7.890824-119.062588-29.06353-169.690353"
          fill="#FFFFFF" p-id="4571"></path>
    <path d="M701.304471 940.400941c3.742118-5.285647 374.249412-528.210824 428.009411-708.796235l-10.940235-1.626353c-53.624471 179.727059-423.318588 701.650824-427.068235 706.898823l9.999059 3.523765z"
          fill="#FFFFFF" p-id="4572"></path>
    <path d="M977.935059 966.482824c-31.262118 3.591529-62.524235 6.640941-93.786353 9.33647 0.353882 0.752941 0.775529 1.468235 1.264941 2.145882 3.252706 4.848941 9.938824 5.744941 15.540706 8.07153 5.601882 2.334118 10.661647 8.975059 7.047529 13.643294-1.807059 2.334118-5.059765 3.049412-7.951058 3.403294l-32.346353 5.38353c-39.393882 6.460235-80.948706 12.920471-118.174118-1.257412-15.36-5.918118-16.444235-14.712471-11.203765-22.061177-200.041412 8.606118-400.978824 1.965176-601.374117-4.487529-16.263529 0-34.514824-4.306824-38.851765-20.630588 103.183059-46.117647 203.294118-46.298353 315.143529-49.347765l393.027765-10.405647c6.686118-0.180706 13.906824-0.180706 19.696941 3.230118 5.775059 3.410824 9.035294 10.224941 13.906824 15.247058 14.456471 14.893176 38.671059 11.843765 59.452235 10.232471a229.835294 229.835294 0 0 1 89.630118 11.301647c3.975529 1.257412 8.312471 3.049412 10.300235 6.640941 5.421176 10.044235-9.938824 18.296471-21.323294 19.553883"
          fill="#515151" p-id="4573"></path>
    <path d="M249.178353 8.229647h313.065412v961.671529H249.178353c-31.503059 0-57.050353-25.441882-57.050353-56.82447V65.054118C192.128 33.671529 217.675294 8.229647 249.178353 8.229647"
          fill="#fe8830" p-id="4574"></path>
    <path d="M293.195294 8.229647h407.333647c36.720941 0 66.492235 30.049882 66.492235 67.117177v828.054588c0 37.067294-29.771294 67.117176-66.492235 67.117176h-407.341176c-36.720941 0-66.484706-30.042353-66.484706-67.117176V75.346824c0-37.067294 29.763765-67.117176 66.484706-67.117177"
          fill="#fe8830" p-id="4575"></path>
    <path d="M743.356235 66.160941v800.602353c-0.097882 18.748235-15.134118 33.927529-33.709176 34.025412H283.896471c-18.567529-0.060235-33.573647-15.284706-33.536-34.017882V66.160941c-0.037647-18.733176 14.968471-33.957647 33.536-34.017882h84.186353v10.61647c0 18.891294 15.171765 34.198588 33.882352 34.198589h188.890353c18.718118 0 33.889882-15.307294 33.889883-34.198589v-10.61647H709.647059a33.520941 33.520941 0 0 1 23.845647 9.946353 34.145882 34.145882 0 0 1 9.863529 24.071529"
          fill="#FFFFFF" p-id="4576"></path>
    <path d="M722.90133333 64.79644444v727.476706c-0.037647 34.055529-27.904 61.650824-62.290824 61.696H255.80674533V98.99503244c-0.037647-18.831059 15.32988199-34.138353 34.341647-34.198588h86.226823v10.676706c0 18.981647 15.533176 34.371765 34.710589 34.371765h193.445647c19.16988199 0 34.710588-15.39011799 34.710588-34.371765V64.79644444h83.659294z"
          fill="#EBEBF0" p-id="4577"></path>
    <path d="M332.664471 344.026353h513.370353c18.484706 0.015059 33.468235 14.757647 33.475764 32.941176v124.400942c-0.007529 18.183529-14.991059 32.933647-33.475764 32.941176H332.664471c-18.492235-0.007529-33.475765-14.757647-33.483295-32.941176V376.967529c0.007529-18.183529 14.991059-32.926118 33.483295-32.941176"
          fill="#fe8830" p-id="4578"></path>
    <path d="M347.459765 331.655529h507.828706c18.288941 0 33.114353 14.682353 33.121882 32.783059v123.821177c-0.007529 18.100706-14.832941 32.783059-33.121882 32.790588H347.459765c-18.296471-0.007529-33.114353-14.682353-33.129412-32.790588V364.438588c0.015059-18.100706 14.832941-32.775529 33.129412-32.783059"
          fill="#FFFFFF" p-id="4579"></path>
    <path d="M290.334118 206.049882h86.00847V120.32H290.334118z" fill="#FFFFFF" p-id="4580"></path>
    <path d="M367.646118 365.545412h87.41647a17.272471 17.272471 0 0 1 17.295059 17.242353V469.910588c0 4.577882-1.822118 8.96-5.067294 12.197647-3.245176 3.237647-7.649882 5.044706-12.235294 5.044706h-87.416471c-4.585412 0-8.982588-1.807059-12.227764-5.044706a17.212235 17.212235 0 0 1-5.067295-12.197647V382.795294a17.091765 17.091765 0 0 1 5.029647-12.235294 17.204706 17.204706 0 0 1 12.272942-5.014588"
          fill="#EBEBF0" p-id="4581"></path>
    <path d="M290.334118 311.717647h86.00847V225.987765H290.334118zM290.334118 648.643765h86.00847V562.913882H290.334118zM290.334118 754.311529h86.00847V668.581647H290.334118zM470.362353 453.985882v16.037647c0 4.547765-1.829647 8.907294-5.074824 12.122353a17.392941 17.392941 0 0 1-12.235294 5.014589h-87.41647a17.392941 17.392941 0 0 1-12.227765-5.022118 17.039059 17.039059 0 0 1-5.067294-12.107294v-16.045177a122.247529 122.247529 0 0 1 48.263529-18.575058 25.502118 25.502118 0 0 1-12.363294-28.890353 25.825882 25.825882 0 0 1 25.185883-19.049412 25.810824 25.810824 0 0 1 24.907294 19.410823 25.509647 25.509647 0 0 1-12.784942 28.709647c25.863529 4.141176 48.805647 18.394353 48.805648 18.394353"
          fill="#FFFFFF" p-id="4582"></path>
    <path d="M844.980706 387.471059H517.782588c-2.996706 0-5.421176-2.228706-5.421176-4.984471 0-2.748235 2.424471-4.976941 5.421176-4.976941h327.198118c2.996706 0 5.421176 2.228706 5.421176 4.976941 0 2.755765-2.424471 4.984471-5.421176 4.984471"
          fill="#EBEBF0" p-id="4583"></path>
    <path d="M409.396706 142.253176h305.942588c2.785882 0 5.044706 2.228706 5.044706 4.984471 0 2.755765-2.258824 4.984471-5.044706 4.984471H409.396706a5.082353 5.082353 0 0 1-3.568941-1.460706 4.946824 4.946824 0 0 1 0-7.04753 5.082353 5.082353 0 0 1 3.568941-1.460706M715.339294 186.112H409.396706a5.082353 5.082353 0 0 1-3.568941-1.460706 4.946824 4.946824 0 0 1-1.475765-3.523765c0-2.748235 2.258824-4.984471 5.044706-4.98447h305.942588c2.785882 0 5.044706 2.236235 5.044706 4.98447a5.12 5.12 0 0 1-5.044706 4.984471M715.339294 255.894588H409.396706a5.082353 5.082353 0 0 1-3.568941-1.460706 4.946824 4.946824 0 0 1-1.475765-3.523764c0-2.755765 2.258824-4.984471 5.044706-4.984471h305.942588c2.785882 0 5.044706 2.228706 5.044706 4.984471a5.12 5.12 0 0 1-5.044706 4.98447M715.339294 283.806118H409.396706a5.082353 5.082353 0 0 1-3.568941-1.460706 4.946824 4.946824 0 0 1-1.475765-3.523765c0-2.755765 2.258824-4.984471 5.044706-4.984471h305.942588c2.785882 0 5.044706 2.228706 5.044706 4.984471a5.12 5.12 0 0 1-5.044706 4.984471M715.339294 596.811294H409.396706a5.082353 5.082353 0 0 1-3.568941-1.460706 4.946824 4.946824 0 0 1-1.475765-3.523764c0-2.755765 2.258824-4.984471 5.044706-4.984471h305.942588c2.785882 0 5.044706 2.228706 5.044706 4.984471a5.12 5.12 0 0 1-5.044706 4.98447M715.339294 624.715294H409.396706a5.082353 5.082353 0 0 1-3.568941-1.453176 4.946824 4.946824 0 0 1-1.475765-3.523765c0-2.755765 2.258824-4.984471 5.044706-4.984471h305.942588c2.785882 0 5.044706 2.228706 5.044706 4.984471a5.12 5.12 0 0 1-5.044706 4.984471M715.339294 702.471529H409.396706a5.082353 5.082353 0 0 1-3.568941-1.460705 4.946824 4.946824 0 0 1 0-7.04753 5.082353 5.082353 0 0 1 3.568941-1.460706h305.942588c2.785882 0 5.044706 2.236235 5.044706 4.984471a5.12 5.12 0 0 1-5.044706 4.98447M715.339294 730.383059H409.396706a5.082353 5.082353 0 0 1-3.568941-1.460706 4.946824 4.946824 0 0 1-1.475765-3.523765c0-2.748235 2.258824-4.984471 5.044706-4.98447h305.942588c2.785882 0 5.044706 2.236235 5.044706 4.98447a5.12 5.12 0 0 1-5.044706 4.984471"
          fill="#FFFFFF" p-id="4584"></path>
    <path d="M844.980706 421.368471H517.782588c-2.996706 0-5.421176-2.236235-5.421176-4.984471 0-2.755765 2.424471-4.984471 5.421176-4.984471h327.198118c2.996706 0 5.421176 2.228706 5.421176 4.984471 0 2.748235-2.424471 4.984471-5.421176 4.984471M844.980706 457.253647H517.782588c-2.996706 0-5.421176-2.236235-5.421176-4.984471 0-2.755765 2.424471-4.984471 5.421176-4.98447h327.198118c2.996706 0 5.421176 2.228706 5.421176 4.98447 0 2.748235-2.424471 4.984471-5.421176 4.984471"
          fill="#EBEBF0" p-id="4585"></path>
    <path d="M783.420235 692.683294l-20.653176 149.842824a39.152941 39.152941 0 0 0 1.987765 18.778353l36.961882 108.318117 21.556706-6.678588-16.301177-107.776a16.655059 16.655059 0 0 1 0.361412-6.686118l28.077177-96.399058 12.137411 217.359058h19.930353l17.204706-214.656c5.797647-35.742118-4.894118-62.283294-4.894118-62.283294l-96.37647 0.180706z"
          fill="#3F3D56" p-id="4586"></path>
    <path d="M889.901176 561.242353v102.603294c0 12.596706-1.987765 22.678588-14.667294 22.678588h-88.372706c-12.679529 0-13.040941-10.081882-13.221647-22.678588l-0.722823-69.842823s-19.019294 33.837176-34.228706 30.599529c-15.209412-3.237647-60.310588-65.159529-60.310588-65.159529l22.460235-18.718118 37.850353 37.797647s6.159059-13.673412 14.848-44.453647c8.696471-30.780235 37.669647-30.960941 37.669647-30.960941h76.784941c27.708235 0 21.910588 58.134588 21.910588 58.134588"
          fill="#1296db" p-id="4587"></path>
    <path d="M887.491765 457.253647s27.452235 57.547294 28.875294 77.274353c1.415529 19.727059-27.994353 46.328471-27.994353 46.328471L866.409412 503.04h20.901647v-45.786353h0.180706z"
          fill="#1296db" p-id="4588"></path>
    <path d="M890.149647 580.856471s18.078118-50.296471 16.112941-61.696c-1.965176-11.399529-17.182118-47.954824-17.182117-47.954824v32.030118l-26.676706 0.542117 27.745882 77.078589z"
          fill="#1296db" p-id="4589"></path>
    <path d="M784.399059 692.502588h96.007529v-7.973647h-96.007529z" fill="#1296db" p-id="4590"></path>
    <path d="M798.027294 411.813647c5.662118-3.237647 12.559059-3.599059 19.275294-3.772235l13.982118-0.361412c3.124706-0.150588 6.256941-0.030118 9.366588 0.361412a22.942118 22.942118 0 0 1 14.976 9.479529c3.553882 5.059765 4.969412 11.346824 3.952941 17.468235-0.308706 1.656471-0.783059 3.290353-1.415529 4.856471-0.542118 1.129412-0.903529 2.341647-1.061647 3.591529 0.301176 1.957647 0.963765 3.847529 1.942588 5.571765 1.950118 5.383529-1.234824 11.143529-4.773647 15.450353-3.538824 4.314353-7.785412 8.809412-8.312471 14.554353-0.173176 1.799529 0 3.952941-1.234823 5.391059a4.472471 4.472471 0 0 1-5.662118 0.361412 14.042353 14.042353 0 0 1-3.892706-4.668236c0.180706 2.688-3.538824 4.126118-5.835294 2.868706a9.313882 9.313882 0 0 1-3.892706-6.64847c-0.301176-2.635294-1.084235-5.195294-2.29647-7.544471-1.242353-1.799529-3.184941-3.056941-3.712-5.210353-1.061647-3.599059 2.469647-7.552 1.054117-11.143529-1.054118-2.876235-5.12-3.772235-7.958588-2.514824-2.710588 1.520941-4.969412 3.764706-6.543059 6.467765 2.657882-3.591529 0.527059-9.705412-2.29647-12.574118-4.419765-4.856471-10.962824-0.722824-14.682353-4.141176-6.896941-6.821647 2.831059-24.252235 9.020235-27.843765"
          fill="#3F3D56" p-id="4591"></path>
    <path d="M838.121412 513.957647s-10.782118 14.155294-25.517177 14.155294c-14.735059 0-58.036706 42.842353-60.912941 55.725177-2.876235 12.882824-12.574118 5.812706-12.574118 5.812706s6.098824-13.801412 14.72753-44.837648 37.376-31.216941 37.376-31.216941h38.814118l8.086588 0.368941z"
          fill="#FFFFFF" p-id="4592"></path>
    <path d="M822.663529 971.52l7.536942 19.117176-30.34353 14.840471-28.182588 2.040471s-4.848941-19.109647 8.252235-20.781177a43.723294 43.723294 0 0 0 21.187765-8.530823l21.549176-6.678589zM846.554353 981.519059a22.535529 22.535529 0 0 0-13.673412 18.447059l-0.700235 7.552h33.65647v-25.999059h-19.275294z"
          fill="#222A72" p-id="4593"></path>
    <path d="M218.654118 500.592941s12.641882-7.228235 15.269647-6.791529c2.627765 0.436706 5.022118 0.376471 8.493176 1.460706 2.688 0.843294 3.734588 2.078118 3.576471 2.695529-0.158118 0.617412-1.257412 0.692706-3.501177 0.030118-2.206118-0.647529-2.605176-0.128-2.605176-0.128s4.901647 1.867294 6.528 3.516235c1.498353 1.520941 0.451765 2.296471 0.459294 2.499765 0.067765 0.978824 1.626353 1.92 1.453176 3.855059-0.128 1.340235-0.903529 1.460706-1.182117 1.904941-0.301176 0.474353 0.444235 2.191059-2.507294 1.377882a23.122824 23.122824 0 0 0-10.014118-0.240941c-4.336941 0.858353-7.815529 2.846118-13.071059 2.078118-5.925647-0.858353-9.509647-0.180706-9.509647-0.180706l0.557177-9.953883 6.061176-2.123294z"
          fill="#ECC7AE" p-id="4594"></path>
    <path d="M74.187294 674.590118s-6.226824 10.127059-1.28 39.770353c6.776471 40.568471 12.551529 70.814118 6.776471 87.770353-5.775059 16.963765-7.981176 38.678588-3.192471 69.948235 3.764706 24.530824 6.595765 44.694588 8.387765 55.792941 1.792 11.113412 0.527059 17.242353 0.527059 17.242353s2.763294 24.101647 4.457411 32.278588c3.2 15.36 27.964235 19.456 22.159059 12.687059-5.985882-6.964706-8.982588-19.704471-9.577412-36.781176-0.316235-8.899765 2.484706-85.586824 6.881883-132.065883 0.512-5.376 5.353412-9.396706 6.949647-19.907765 3.312941-21.737412 9.456941-162.56 9.456941-162.56s-35.674353-3.757176-51.546353 35.824942"
          fill="#DAAE9B" p-id="4595"></path>
    <path d="M98.447059 959.563294c-5.089882-23.612235-7.326118-50.755765-7.981177-85.285647-0.527059-28.032-0.338824-42.631529 6.287059-59.414588 4.193882-10.616471-2.996706-49.716706-2.996706-49.716706s-4.352-0.617412-13.891764-2.424471c2.575059 16.948706 3.290353 29.221647-0.180706 39.408942-5.775059 16.963765-7.981176 38.678588-3.192471 69.948235 3.764706 24.530824 6.595765 44.694588 8.387765 55.792941 1.792 11.113412 0.391529 16.843294 0.391529 16.843294s2.898824 24.500706 4.592941 32.677647c0.993882 4.781176 18.507294 11.452235 20.961883 13.093647-3.2-4.645647-7.589647-8.688941-12.378353-30.923294"
          fill="#DAAE9B" p-id="4596"></path>
    <path d="M75.783529 655.887059c2.966588-7.393882 11.971765-24.124235 16.165647-28.197647l19.742118-6.083765c0.504471 2.206118 5.948235 6.347294 6.4 8.485647-0.64 13.349647 1.611294 61.680941 2.43953 108.544-1.174588 19.094588-2.326588 34.56-3.252706 40.651294-1.001412 6.595765-2.936471 9.667765-4.660706 13.537883-11.572706 3.937882-32.218353-11.896471-31.932236-12.724706 5.775059-16.963765 0-47.209412-6.77647-87.777883-4.946824-29.650824 1.874824-36.442353 1.874823-36.442353"
          fill="#DAAE9B" p-id="4597"></path>
    <path d="M103.499294 658.484706s7.830588 15.585882 7.371294 27.934118c-0.225882 5.76-4.141176 15.480471-4.141176 15.48047s-1.656471 3.727059-4.050824 4.005647c-1.430588 0.165647-5.345882-1.641412-6.573176-2.334117-4.442353-2.499765-4.472471-6.836706-4.472471-6.836706s0.692706-8.636235-0.624941-14.456471c-1.295059-5.797647-1.189647-12.506353-1.189647-12.506353l13.680941-11.286588z"
          fill="#D5B097" p-id="4598"></path>
    <path d="M103.333647 659.568941s6.753882 14.757647 6.821647 19.629177c0.067765 4.879059-6.083765 17.310118-6.083765 17.310117s-2.710588 1.822118-3.433411-1.362823c-0.903529-3.975529 1.159529-10.209882 1.159529-10.209883s-0.007529-0.444235-3.538823-4.382117c-3.538824-3.937882-2.334118-11.482353-2.334118-11.482353l7.408941-9.502118z"
          fill="#EFD0BA" p-id="4599"></path>
    <path d="M107.437176 447.872l-23.740235-6.324706 2.966588 11.218824 14.516706 11.068235h8.282353z" fill="#DA9D59"
          p-id="4600"></path>
    <path d="M95.397647 493.146353s4.517647-15.232 4.382118-28.973177c-0.112941-12.054588 0-16.173176 0-16.173176l28.212706 12.400941s-1.995294 24.432941-1.995295 31.932235c0 1.618824 3.388235 4.472471 0.670118 11.218824-2.002824 4.954353-14.245647 17.084235-31.277176-10.405647"
          fill="#EFC1A9" p-id="4601"></path>
    <path d="M123.422118 458.390588c-1.656471 13.846588-4.239059 35.809882-6.038589 52.065883-5.504 0.587294-13.101176-2.951529-21.985882-17.310118 0 0 4.517647-15.232 4.382118-28.973177a602.608941 602.608941 0 0 1-0.00753-15.73647l0.120471-0.384 23.529412 10.337882z"
          fill="#B49181" p-id="4602"></path>
    <path d="M118.874353 393.758118c20.698353-2.590118 26.292706 13.101176 29.266823 27.798588 1.099294 5.398588-2.514824 10.752-2.228705 12.875294 0.331294 2.544941 2.386824 4.585412 1.347764 11.896471-0.798118 5.571765-2.846118 13.184-5.903059 21.910588-1.731765 4.976941-3.621647 8.357647-6.324705 9.170823-6.249412 1.897412-15.811765 0.248471-28.732236-10.910117-11.444706-9.923765-15.585882-28.363294-16.037647-30.102589l4.788706-27.678117s12.8-13.583059 23.823059-14.960941"
          fill="#FCD4BF" p-id="4603"></path>
    <path d="M113.287529 393.758118c20.698353-2.590118 29.432471 10.631529 33.746824 24.982588 0.527059 1.746824-3.952941 14.095059-3.674353 16.218353 0.338824 2.544941 1.498353 2.710588 0.978824 10.089412-0.150588 2.108235-1.724235 8.786824-2.69553 12.8-1.242353 5.12-3.568941 18.672941-6.272 19.493647-6.249412 1.897412-21.737412 0.316235-34.657882-10.842353-11.452235-9.923765-15.585882-28.363294-16.037647-30.102589l4.788706-27.678117s12.8-13.583059 23.823058-14.960941"
          fill="#B49181" p-id="4604"></path>
    <path d="M110.667294 397.327059a1.776941 1.776941 0 0 0 0.496941-0.271059c0.278588-0.331294 0.007529-0.225882-0.496941 0.271059"
          fill="#EFC1A9" p-id="4605"></path>
    <path d="M106.496 465.897412c8.756706 7.552 16.271059 10.88 22.332235 11.51247 1.302588 0.060235 2.552471 0.045176 3.71953-0.045176-4.080941-1.505882-7.627294-1.295059-14.704941-9.09553-5.925647-6.528-11.369412-15.495529-12.905412-20.449882-3.124706-10.119529-0.963765-14.313412 2.913882-16.233412 2.763294-1.370353 19.779765-4.434824 27.610353-12.815058 4.367059-4.668235 6.430118-11.113412 5.684706-16.414118a18.040471 18.040471 0 0 0-4.592941-5.677177c-5.293176 1.054118-21.263059 3.222588-34.921412 5.586824-2.672941 2.191059-5.202824 4.600471-6.377412 5.842823l-4.788706 27.685648c0.451765 1.731765 4.577882 20.171294 16.037647 30.102588"
          fill="#D5AD9B" p-id="4606"></path>
    <path d="M216.387765 517.609412s-30.976 23.785412-57.306353 22.211764c-14.290824-0.850824-54.558118-14.125176-70.746353-23.67247-13.266824-7.830588-18.191059-15.977412-15.683765-25.472 2.183529-8.274824 23.582118-3.998118 37.323294 4.570353 11.188706 6.994824 36.389647 19.892706 49.618824 23.559529 0.399059 0.105412 1.671529-0.549647 2.048-0.451764 0.760471 0.188235 0.986353 2.492235 1.882353 1.65647 0.338824-0.301176 1.942588-1.799529 2.951529-0.880941 0.768 0.685176 1.807059 0.399059 4.216471-0.075294 15.533176-3.011765 41.991529-15.322353 41.991529-15.322353s4.178824 0.602353 7.333647 2.898823c5.556706 4.035765-2.070588 9.464471-3.629176 10.977883"
          fill="#DCEEF4" p-id="4607"></path>
    <path d="M90.541176 506.081882c18.718118 7.378824 51.463529 22.701176 66.612706 26.202353 0.692706 0.158118 2.763294-3.862588 3.373177-3.727059 1.656471 0.376471 0.692706 4.321882 1.347765 4.126118 1.332706-0.391529 2.928941-1.716706 4.096-7.04 0.512-2.341647 1.219765 1.204706 0.602352 4.269177-2.755765 13.462588 40.944941-15.759059 52.99953-23.567059 0.150588 0.090353 0.301176 0.173176 0.451765 0.286117 5.549176 4.035765-2.078118 9.464471-3.636706 10.977883 0 0-30.976 23.785412-57.306353 22.211764-11.226353-0.670118-38.475294-9.005176-57.502118-17.174588-4.562824-2.56-9.035294-4.841412-13.251765-6.497882-13.259294-7.830588-18.183529-15.977412-15.676235-25.472a4.592941 4.592941 0 0 1 1.648941-2.454588c0.850824 7.024941 5.714824 13.703529 16.240941 17.859764"
          fill="#A9C3C9" p-id="4608"></path>
    <path d="M103.514353 673.852235s-12.182588 8.493176-7.672471 47.917177c2.575059 22.512941 16.376471 94.554353 16.376471 94.554353s-8.583529 30.456471-3.591529 58.767059c3.998118 22.640941 13.251765 71.499294 11.708235 73.374117-6.912 8.432941 5.466353 22.851765 5.466353 22.851765s4.352 17.129412 12.107294 22.768941c2.959059 2.153412 14.622118 0.813176 10.044235-6.603294-2.989176-4.848941-9.577412-21.421176-10.578823-38.000941-0.481882-8.079059 1.581176-83.388235 3.184941-120.58353 0.263529-6.113882 2.575059-9.110588 2.996706-24.252235 1.957647-69.278118 3.463529-129.581176 3.463529-129.581176l-43.504941-1.204706z"
          fill="#EFC1A9" p-id="4609"></path>
    <path d="M103.514353 673.852235l43.098353 1.204706-0.060235 14.34353c-0.670118 20.434824-1.423059 61.086118-2.69553 105.547294-5.157647 6.618353-22.151529 7.875765-35.749647-0.489412a3105.731765 3105.731765 0 0 1-7.838118-43.798588c-0.361412-14.908235-1.400471-44.498824-4.080941-60.837647 2.432-12.544 7.326118-15.962353 7.326118-15.962353"
          fill="#DAAE9B" p-id="4610"></path>
    <path d="M132.374588 954.300235c-3.192471-20.48-14.260706-63.563294-9.472-108.423529 2.424471-22.738824 10.277647-28.370824 10.473412-38.204235 0.527059-26.074353 3.192471-123.181176 3.192471-123.181177s-40.711529-2.017882-34.868706 69.519059c4.864 25.825882 10.518588 62.313412 10.518588 62.313412s-8.583529 30.456471-3.591529 58.767059c3.998118 22.640941 13.251765 71.499294 11.708235 73.374117-6.912 8.432941 5.466353 22.851765 5.466353 22.851765s4.352 17.129412 12.107294 22.768941c0.850824 0.617412 8.545882 3.079529 10.24 3.064471-3.915294-14.471529-13.342118-27.271529-15.774118-42.842353"
          fill="#DAAE9B" p-id="4611"></path>
    <path d="M145.626353 595.425882s8.990118 30.373647 12.114823 50.025412c5.850353 36.894118-3.614118 143.329882-3.614117 143.329882s-11.956706 9.773176-38.708706 1.016471c-19.463529-6.369882-39.521882-17.995294-39.521882-17.995294s-1.219765-39.506824-2.025412-44.175059c-8.455529-49.332706-6.098824-55.928471-0.105412-76.950588 6.656-23.363765 18.364235-42.315294 18.364235-42.315294l53.496471-12.93553z"
          fill="#232F38" p-id="4612"></path>
    <path d="M129.483294 622.147765s-30.230588 38.799059-8.079059 96.707764c3.380706 8.832 3.591529 12.724706 1.626353 72.96-0.030118 0-0.067765 0.022588-0.097882 0.030118-2.371765-0.534588-4.848941-1.182118-7.514353-2.048-19.463529-6.369882-39.521882-17.995294-39.521882-17.995294s1.792-42.194824 1.204705-46.885647c-6.256941-49.189647-9.328941-53.217882-3.335529-74.24 6.656-23.363765 18.356706-42.315294 18.356706-42.315294l3.064471-0.737883 34.29647 14.524236z"
          fill="#232F38" p-id="4613"></path>
    <path d="M119.860706 948.464941s-6.731294 4.464941-2.243765 17.513412c0.888471 2.56 2.439529 2.221176 2.514824 2.823529 0 0 1.347765 1.212235 2.544941 4.848942 2.334118 7.107765 4.133647 13.718588 5.910588 17.837176 1.731765 4.013176 5.662118 7.657412 12.649412 8.463059 7.168 0.828235 12.664471 0.64 14.290823 0.37647 1.874824-0.301176 1.581176-2.861176-0.225882-4.698353-2.386824-2.424471-6.354824-6.768941-6.354823-6.768941s-2.966588-0.263529-4.788706-1.415529c-5.797647-3.636706-8.402824-14.637176-15.375059-30.516706-3.192471-7.273412-8.922353-8.463059-8.922353-8.463059M85.473882 942.381176s-6.678588 4.050824-2.93647 14.509177c1.317647 3.696941 3.049412 2.544941 4.336941 7.424 2.642824 10.029176 4.510118 26.232471 4.788706 27.060706 1.950118 5.76 9.283765 7.499294 12.973176 7.604706 2.432 0.060235 11.354353 0.120471 12.175059-0.105412 1.295059-0.361412 1.829647-2.160941 0.150588-4.848941-1.174588-1.874824-3.84-3.937882-4.34447-4.096-1.159529-0.353882-8.003765-2.349176-10.104471-8.335059-3.207529-9.163294-11.911529-43.956706-17.039059-39.205647"
          fill="#323B42" p-id="4614"></path>
    <path d="M100.043294 998.272c-4.788706-2.123294-7.333647-2.733176-8.380235-6.904471-0.240941-0.956235-2.883765-18.928941-5.165177-28.416-0.677647-2.861176-0.504471-4.186353-1.27247-4.999529 0 0 3.742118 0 6.287059 8.485647 2.891294 9.637647 7.190588 19.094588 9.728 26.074353 1.807059 4.954353 5.692235 6.061176 8.259764 6.497882-2.025412-0.015059-8.598588-0.361412-9.456941-0.737882M119.055059 965.217882c2.063059 0.338824 3.892706 1.867294 5.044706 4.344471a377.961412 377.961412 0 0 0 12.574117 24.350118c2.319059 4.118588 5.059765 5.722353 7.454118 6.324705-0.933647-0.075294-1.889882-0.173176-2.891294-0.286117-6.987294-0.805647-10.917647-4.449882-12.649412-8.463059-1.776941-4.118588-3.568941-10.729412-5.910588-17.837176-1.204706-3.636706-2.544941-4.848941-2.544941-4.848942-0.022588-0.158118 0.128-1.784471-0.075294-2.123294-0.150588-0.256-2.145882-1.716706-1.001412-1.460706"
          fill="#6E777C" p-id="4615"></path>
    <path d="M85.187765 996.344471s0.037647 0.647529 1.091764 0.557176c0.896-0.075294 0.971294-0.451765 0.971295-0.451765l0.225882-43.806117-2.996706 1.061647 0.707765 42.639059zM119.311059 1000.327529s0.045176 0.647529 1.091765 0.557177c0.903529-0.075294 0.978824-0.451765 0.978823-0.451765l0.225882-43.806117-2.996705 1.054117 0.700235 42.646588z"
          fill="#323B42" p-id="4616"></path>
    <path d="M147.328 581.918118c0 2.258824 2.055529 18.326588 5.089882 37.210353-8.350118 5.820235-16.504471 12.325647-27.241411 11.89647-17.648941-0.700235-30.945882-5.609412-39.032471-11.670588 4.080941-12.423529 5.76-25.712941 5.76-34.657882-1.603765-19.004235-21.985882-65.927529-20.193882-91.693177 0.617412-8.907294 11.723294-11.113412 11.76847-11.015529 16.971294-0.805647 49.204706 10.669176 53.014588 12.069647 6.588235 2.424471 10.774588 4.246588 15.164236 17.385412 3.147294 9.411765 5.632 18.243765 7.198117 23.258352 5.594353 17.784471 2.718118 20.781176-4.517647 29.741177-3.599059 4.442353-7.002353 10.194824-7.002353 17.468235"
          fill="#DEF0F6" p-id="4617"></path>
    <path d="M91.904 584.696471c-1.603765-19.004235-21.985882-65.927529-20.193882-91.693177 0.218353-3.139765 1.746824-5.436235 3.629176-7.107765 17.423059 0.225882 44.897882 6.738824 56.124235 12.348236 6.287059 3.139765 5.330824 3.998118 9.712942 17.136941 3.147294 9.411765-0.624941 24.071529-1.626353 35.614118-0.903529 10.307765-2.695529 27.587765-2.69553 34.861176 0 2.258824 2.055529 18.334118 5.089883 37.210353-3.764706 2.627765-7.499294 5.383529-11.444706 7.589647-1.701647 0.301176-3.471059 0.444235-5.323294 0.376471-17.648941-0.707765-30.832941-5.616941-38.91953-11.678118 5.089882-16.828235 5.647059-25.712941 5.647059-34.657882"
          fill="#A9C3C9" p-id="4618"></path>
    <path d="M157.319529 703.186824s6.287059 13.236706 5.692236 15.872c-0.602353 2.620235-0.700235 5.044706-1.995294 8.485647-1.008941 2.665412-2.296471 3.629176-2.891295 3.433411-0.602353-0.203294-0.602353-1.310118 0.195765-3.538823 0.783059-2.183529 0.301176-2.627765 0.301177-2.627765s-2.168471 4.833882-3.892706 6.369882c-1.596235 1.415529-2.296471 0.301176-2.499765 0.301177-0.963765 0-1.995294 1.513412-3.885176 1.212235-1.317647-0.210824-1.385412-1.001412-1.79953-1.310117-0.451765-0.346353-2.191059 0.301176-1.204706-2.635295 1.054118-3.049412 1.310118-6.964706 0.90353-10.096941-0.564706-4.442353-2.288941-8.086588-1.197177-13.342117 1.242353-5.933176 0.798118-9.6 0.798118-9.6l9.788235 1.212235 1.686588 6.264471z"
          fill="#ECC7AE" p-id="4619"></path>
    <path d="M159.819294 703.593412s-7.582118-57.803294-8.176941-88.417883c-0.286118-14.494118 4.126118-64.436706 4.788706-73.968941 2.093176-30.320941-5.692235-41.532235-14.155294-43.422117-8.259765-1.837176-14.290824 12.8-13.989647 35.237647 0.143059 10.413176-1.724235 57.953882-0.301177 82.447058 1.114353 19.079529 13.477647 89.441882 13.477647 89.441883s6.512941 2.063059 11.670588 1.204706c5.496471-0.903529 5.985882-1.611294 6.686118-2.522353"
          fill="#DCEEF4" p-id="4620"></path>
    <path d="M141.462588 704.903529s-12.363294-70.354824-13.477647-89.426823c-1.423059-24.500706 0.444235-72.041412 0.301177-82.454588-0.158118-12.009412 1.355294-20.954353 3.809882-26.774589 1.054118-2.492235 2.251294-4.555294 3.410824-5.805176 3.102118-1.829647 8.711529 7.205647 8.493176 17.882353-0.489412 23.341176-6.415059 68.811294-6.113882 97.106823 0.301176 28.190118 8.658824 76.137412 13.771294 90.932706-4.803765 0.519529-10.194824-1.453176-10.194824-1.453176"
          fill="#A9C3C9" p-id="4621"></path>
    <path d="M131.312941 492.257882s-1.731765-6.4-2.838588-7.808c-2.401882-3.026824-23.815529-11.023059-29.191529-10.157176-3.742118 0.602353-1.453176 2.785882-2.544942 5.308235-1.054118 2.424471-2.017882 3.184941-2.017882 3.184941s25.675294 5.835294 36.592941 9.472"
          fill="#EDF9FF" p-id="4622"></path>
    <path d="M77.281882 403.252706l0.13553 0.075294c0.210824-0.429176 0.421647-0.858353 0.662588-1.264941 18.462118-30.584471 56.124235-13.372235 60.114824-10.804706 10.330353 6.640941 21.707294 18.160941 6.558117 39.604706-5.797647 8.199529-8.628706 16.022588-8.801882 27.565176-0.512 34.349176 9.336471 44.822588 8.387765 44.875294-8.184471 0.399059-30.464-0.557176-43.504942-7.077647-15.774118-7.883294-17.362824-13.545412-18.567529-17.995294-0.128-0.481882-3.674353-20.103529-5.180235-31.947294 0.263529 14.569412 3.388235 33.972706 3.388235 33.972706s-4.788706-11.316706-6.821647-44.303059c-1.475765-24.018824 3.629176-32.700235 3.629176-32.700235"
          fill="#C68C43" p-id="4623"></path>
    <path d="M148.126118 495.013647s-12.995765-21.406118-4.984471-43.760941c12.272941-34.258824 7.484235-46.983529 7.484235-46.98353l-18.846117 39.318589s1.475765 12.348235 2.793411 20.208941c3.380706 20.096 13.552941 31.216941 13.552942 31.216941"
          fill="#C68C43" p-id="4624"></path>
    <path d="M138.051765 440.342588c-0.828235 2.273882-1.995294 5.112471-3.124706 8.402824-0.120471-0.737882-0.384-0.308706-0.865883 1.904941-0.203294 0.903529 1.897412-21.526588 1.897412-21.526588s-6.693647 21.225412-6.693647 44.265411c0 15.646118 3.501176 23.032471 5.744941 26.164706 0.399059 1.392941 0.798118 2.605176 1.189647 3.727059-10.337882-0.376471-25.494588-2.123294-35.365647-7.055059-15.774118-7.883294-17.362824-13.545412-18.56-17.995294-0.135529-0.481882-3.674353-20.103529-5.187764-31.947294 0.263529 14.569412 3.388235 33.972706 3.388235 33.972706s-4.788706-11.316706-6.821647-44.303059c-0.918588-14.953412 0.707765-23.951059 2.070588-28.611765 18.853647-26.330353 50.703059-13.424941 54.543059-10.955294 10.330353 6.633412 16.790588 19.222588 7.785412 43.956706z"
          fill="#C68C43" p-id="4625"></path>
</svg>